<svg xmlns="http://www.w3.org/2000/svg" viewBox="0 0 1600 600" role="img" aria-labelledby="title description">
  <title id="title">Banner Ateliê Aurora</title>
  <description id="description">Composição escura e rosé com vela e a marca Ateliê Aurora.</description>
  <defs>
    <linearGradient id="bg" x1="0" y1="0" x2="1" y2="1"><stop stop-color="#0d0d0f"/><stop offset="1" stop-color="#292124"/></linearGradient>
    <linearGradient id="glow" x1="0" y1="0" x2="0" y2="1"><stop stop-color="#fff4e8"/><stop offset="1" stop-color="#dca58f"/></linearGradient>
  </defs>
  <rect width="1600" height="600" fill="url(#bg)"/>
  <circle cx="1310" cy="250" r="305" fill="#dca58f" opacity=".1"/>
  <circle cx="1310" cy="250" r="205" fill="#dca58f" opacity=".08"/>
  <g transform="translate(1170 95)">
    <rect x="5" y="180" width="270" height="285" rx="32" fill="#f3dfd5"/>
    <path d="M140 24c73 89 93 143 54 202-25 37-83 37-108 0-39-59-18-113 54-202z" fill="url(#glow)"/>
    <path d="M140 106c34 43 41 68 22 96-11 17-33 17-44 0-19-28-12-53 22-96z" fill="#7f483a"/>
  </g>
  <text x="120" y="245" fill="#ffffff" font-family="Georgia, serif" font-size="105" font-weight="700">Ateliê Aurora</text>
  <text x="126" y="335" fill="#dca58f" font-family="Arial, sans-serif" font-size="38" letter-spacing="3">PRESENTES FEITOS COM AFETO</text>
  <text x="126" y="420" fill="#ffffff" font-family="Arial, sans-serif" font-size="34" opacity=".76">Velas, kits e detalhes para guardar na memória.</text>
</svg>
